<?xml version="1.0" encoding="UTF-8"?>
<svg id="Layer_1" xmlns="http://www.w3.org/2000/svg" version="1.1" viewBox="0 0 776 8192">
  <!-- Generator: Adobe Illustrator 29.2.1, SVG Export Plug-In . SVG Version: 2.1.0 Build 116)  -->
  <defs>
    <style>
      .st0 {
        fill: none;
        stroke: #000;
        stroke-miterlimit: 2.2;
      }
    </style>
  </defs>
  <path class="st0" d="M489.9,8191.3v-32.5l-15.5-37.5v-6.4l15.5-40.9v-96.4l-52.6-45.3v-6.4l52.6-44.8v-121.8l15.5-33.9v-6.4l-15.5-30.1v-34.5l-7.8-19.4v-6.4l7.8-14.3v-32.7l15.5-44.8v-6.4l-9.4-27.5v-15.7l7.8-44.8v-6.4l-13.8-75.3v-138.7l-15.5-44.8v-6.4l15.5-45.3v-157.1l31-44.8v-6.4l-31-44.8v-240.2l-31-33.9v-6.4l31-32.4v-14.6l-7.8-44.8v-6.4l7.8-44.8v-232.8l-84.7-44.8v-6.4l84.7-44.8v-92.8l37.6-44.8v-6.4l-37.6-44.8v-9.5l-14.9-35.4v-5.6l14.9-34.8v-150.7l-75.8-44.8v-6.4l75.8-44.8v-28.8l-284.5-44.8v-6.4l284.5-44.8v-28.8l-46.5-44.8v-6.4l46.5-44.8v-38.4l46.5-44.8v-6.4l-46.5-44.8v-85.5l-7.8-38.6v-7l7.8-43.5v-31.2l-155-44.8v-6.4l155-44.8v-140.8l-49.3-44.8v-6.4l49.3-44.8v-634.3l54.3-44.8v-6.4l-54.3-44.8v-43.3l-285.1-44.8v-6.4l285.1-44.8v-140.8l-7.8-44.8v-6.4l7.8-44.8v-46.1l7.8-46.5v-6.4l-7.8-39.6v-148.6l-121.8-33.1v-4.7l121.8-33.1v-76.2l-180.5-44.8v-6.4l180.5-44.8v-32.3l23.3-44.8v-6.4l-23.3-44.8v-70.8l-7.8-34.3v-6.4l7.8-25.7v-116.8l-75.3-33.6v-6.4l75.3-33.6v-34.9l1.7-25.7v-4.8l-1.7-28.3v-24.9l-23.3-44.8v-6.4l23.3-44.8v-98.4l97.4-44.8v-6.4l-97.4-44.8-4.4-7.6v-5.6l4.4-9.2v-62.2l-292.3-33.1v-4.7l292.3-33.1v-131.6l-202.6-33.5v-4.7l202.6-33.1v-8.6l7.8-33.6v-6.4l-7.8-33.6v-11.2l-23.3-44.8v-6.4l23.3-44.8v-124.6l-52-33.1v-4.7l52-33.1v-122.6l-85.3-33.1v-4.7l85.3-33.1v-10.8l-300.6-44.8v-6.4l300.6-44.8v-104s0,4.4,0-6.4l-194.9-45.3v-6.4l194.9-44.8v-22.6l7.8-17.2v-6.4l-7.8-13.6v-2.9l-53.1-44.8v-6.4l53.1-44.8v-4.3l-7.8-29.6v-4.8l7.8-32.8v-198l-7.8-44.8v-6.4l7.8-44.8v-36l97.4-44.8v-6.4l-97.4-44.8v-13.4l-202.1-33.1v-4.7l202.1-33.1v-67.6l-91.3-44.8v-6.4l91.3-44.5V.6"/>
</svg>