<?xml version="1.0" encoding="UTF-8"?>
<svg id="Layer_1" data-name="Layer 1" xmlns="http://www.w3.org/2000/svg" viewBox="0 0 776 14798">
  <defs>
    <style>
      .cls-1 {
        fill: none;
        stroke: #000;
      }
    </style>
  </defs>
  <path class="cls-1" d="M572,14796.7v-58.7l-28-67.7v-11.6l28-73.9v-174.1l-95-81.8v-11.5l95-81v-220.1l28-61.3v-11.5l-28-54.3v-62.3l-14-35.1v-11.6l14-25.9v-59.1l28-80.9v-11.6l-17-49.7v-28.3l14-80.9v-11.6l-25-136.1v-250.5l-28-80.9v-11.5l28-81.9v-283.7l56-80.9v-11.6l-56-80.9v-433.9l-56-61.2v-11.5l56-58.6v-26.4l-14-81v-11.5l14-80.9v-420.5l-153-80.9v-11.6l153-80.9v-167.6l68-80.9v-11.6l-68-80.9v-17.2l-27-64v-10.1l27-62.8v-272.2l-137-80.9v-11.6l137-80.9v-52l-514-80.92v-11.56l514-80.92v-52.02l-84-80.92v-11.56l84-80.92v-69.36l84-80.92v-11.56l-84-80.92v-154.46l-14-69.69v-12.67l14-78.49v-56.4l-280-80.92v-11.56l280-80.92v-254.31l-89-80.92v-11.56l89-80.92v-1145.82l98-80.92v-11.56l-98-80.92v-78.23l-515-80.92v-11.56l515-80.92v-254.31l-14-80.92v-11.56l14-80.92v-83.26l14-84v-11.56l-14-71.52v-268.48l-220-59.82v-8.55l220-59.82v-137.57l-326-80.92v-11.56l326-80.92v-58.31l42-80.92v-11.56l-42-80.92v-127.93l-14-61.95v-11.56l14-46.48v-211.07l-136-60.69v-11.56l136-60.69v-63.09l3-46.37v-8.67l-3-51.16v-44.95l-42-80.92v-11.56l42-80.92v-177.73l176-80.92v-11.56l-176-80.92-8-13.71v-10.11l8-16.63v-112.41l-528-59.82v-8.55l528-59.82v-237.78l-366-60.5v-8.55l366-59.82v-15.51l14-60.69v-11.56l-14-60.69v-20.23l-42-80.92v-11.56l42-80.92v-225.11l-94-59.82v-8.55l94-59.82v-221.47l-154-59.82v-8.55l154-59.82v-19.59l-543-80.92v-11.56l543-80.92v-187.84s0,7.99,0-11.54l-352-81.83v-11.56l352-80.92v-40.78l14-31.16v-11.56l-14-24.56v-5.19l-96-80.92v-11.56l96-80.92v-7.81l-14-53.46v-8.67l14-59.24v-357.75l-14-80.92v-11.56l14-80.92v-65.02l176-80.92v-11.56l-176-80.92v-24.15l-365-59.82v-8.55l365-59.82v-122.18l-165-80.92v-11.56l165-80.42V1.02"/>
</svg>