<?xml version="1.0" encoding="UTF-8"?>
<svg id="Layer_1" data-name="Layer 1" xmlns="http://www.w3.org/2000/svg" viewBox="0 0 776 14798">
  <defs>
    <style>
      .cls-1 {
        fill: none;
        stroke: #000;
      }
    </style>
  </defs>
  <path class="cls-1" d="M775.5,14796.7v-388.1l-284-80.9v-11.6l284-80.9c0-224.7,0-199.2,0-199.2l-161-80.9v-11.6l161-80.9v-1061.8l-14-80.9v-11.6l14-80.9v.6-40.4l-132-80.9v-11.6l132-80.9v-1526.5l-121-80.9v-11.6l121-80.9v-1119.84l-105-80.92v-11.56l105-80.92v-2118.64l-89-80.92v-11.56l89-80.92v-765.08l-175-80.92v-11.56l175-80.92v-757.14l-147-80.92v-11.56l147-80.92v-273.83l-14-46.08v-13l14-36.5v-270.68l-188-60.5v-8.55l188-59.82v-37.18l-231-80.92v-11.56l231-80.92v-179.87l-14-79.47v-11.56l14-79.47v-663.96l-175-60.69v-11.56l175-60.69v-1453.7l-175-80.92v-11.56l175-80.92v-475.38l-190-60.5v-8.55l190-59.82v-246.53l-14-78.89v-10.11l13.5-80.92V.73"/>
</svg>