<?xml version="1.0" encoding="UTF-8"?>
<svg id="Layer_1" xmlns="http://www.w3.org/2000/svg" version="1.1" viewBox="0 0 776 8192">
  <!-- Generator: Adobe Illustrator 29.2.1, SVG Export Plug-In . SVG Version: 2.1.0 Build 116)  -->
  <defs>
    <style>
      .st0 {
        fill: none;
        stroke: #000;
        stroke-miterlimit: 2.2;
      }
    </style>
  </defs>
  <path class="st0" d="M602.5,8191.3v-214.8l-157.2-44.8v-6.4l157.2-44.8c0-124.4,0-110.3,0-110.3l-89.1-44.8v-6.4l89.1-44.8v-587.8l-7.8-44.8v-6.4l7.8-44.8v.3-22.4l-73.1-44.8v-6.4l73.1-44.8v-845.1l-67-44.8v-6.4l67-44.8v-619.9l-58.1-44.8v-6.4l58.1-44.8v-1172.9l-49.3-44.8v-6.4l49.3-44.8v-423.5l-96.9-44.8v-6.4l96.9-44.8v-419.1l-81.4-44.8v-6.4l81.4-44.8v-151.6l-7.8-25.5v-7.2l7.8-20.2v-149.8l-104.1-33.5v-4.7l104.1-33.1v-20.6l-127.9-44.8v-6.4l127.9-44.8v-99.6l-7.8-44v-6.4l7.8-44v-367.6l-96.9-33.6v-6.4l96.9-33.6v-804.8l-96.9-44.8v-6.4l96.9-44.8v-263.2l-105.2-33.5v-4.7l105.2-33.1v-136.5l-7.8-43.7v-5.6l7.5-44.8V.4"/>
</svg>