<?xml version="1.0" encoding="UTF-8"?>
<svg id="Layer_1" data-name="Layer 1" xmlns="http://www.w3.org/2000/svg" viewBox="0 0 776 14798">
  <defs>
    <style>
      .cls-1 {
        fill: none;
        stroke: #000;
      }
    </style>
  </defs>
  <path class="cls-1" d="M1,0v332.29l177,59.82v8.55L1,460.49v441.47l531,60.5v8.54L1,1030.83v352.56l457,80.91v11.56L1,1556.78v487.8l14,79.47v13l-14,79.47v723.91l488,80.91v10.12L1,3112.37v169.37l177,60.5v8.55L1,3410.61v238.84l15,58.23v8.67l-15,58.11v154.29l733,82.36v11.56L1,4103.59v176.98h1v173.39h-1v806.15l599,80.92v11.56L1,5433.5v58.31l219,80.91v11.56L1,5665.2v137.57l309,59.82v8.55L1,5930.96v946.53l42,80.91v11.56l-42,80.92v1825.14l277,80.91v11.56L1,9049.41v891.02l42,27.86v13.63l-42,25.78v107l393,80.9v11.6L1,10288.1v767.2l404,81v11.5L1,11228.7v598.2l501,80.9v11.6L1,12000.3v861.9l515,91.5v11.8L1,13045.1v595.2l14,80.9v11.6l-14,80.9v194.1l28,81.9v11.5l-14,40.5v95.4l449,80.9v11.5L1,14436.2v360.5-360.5"/>
</svg>