<?xml version="1.0" encoding="UTF-8"?>
<svg id="Layer_1" xmlns="http://www.w3.org/2000/svg" version="1.1" viewBox="0 0 776 8192">
  <!-- Generator: Adobe Illustrator 29.2.1, SVG Export Plug-In . SVG Version: 2.1.0 Build 116)  -->
  <defs>
    <style>
      .st0 {
        fill: none;
        stroke: #000;
        stroke-miterlimit: 2.2;
      }
    </style>
  </defs>
  <path class="st0" d="M173.8,0v184l98,33.1v4.7l-98,33.1v244.4l294,33.5v4.7l-294,33.1v195.2l253,44.8v6.4l-253,44.8v270l7.8,44v7.2l-7.8,44v400.7l270.2,44.8v5.6l-270.2,44.8v93.8l98,33.5v4.7l-98,33.1v132.2l8.3,32.2v4.8l-8.3,32.2v85.4l405.8,45.6v6.4l-405.8,44.8v98h.6v96h-.6v446.3l331.6,44.8v6.4l-331.6,44.8v32.3l121.2,44.8v6.4l-121.2,44.8v76.2l171.1,33.1v4.7l-171.1,33.1v524l23.3,44.8v6.4l-23.3,44.8v1010.4l153.3,44.8v6.4l-153.3,44.8v493.3l23.3,15.4v7.5l-23.3,14.3v59.2l217.6,44.8v6.4l-217.6,44.8v424.7l223.6,44.8v6.4l-223.6,44.8v331.2l277.3,44.8v6.4l-277.3,44.8v477.1l285.1,50.7v6.5l-285.1,44.1v329.5l7.8,44.8v6.4l-7.8,44.8v107.5l15.5,45.3v6.4l-7.8,22.4v52.8l248.6,44.8v6.4l-256.3,59.1v199.6-199.6"/>
</svg>