<?xml version="1.0" encoding="UTF-8"?>
<svg id="Layer_1" data-name="Layer 1" xmlns="http://www.w3.org/2000/svg" viewBox="0 0 776 14798">
  <defs>
    <style>
      .cls-1 {
        fill: none;
        stroke: #000;
      }
    </style>
  </defs>
  <path class="cls-1" d="M378,14797.2v-45.7l150-80.9v-11.6l-150-80.9v-704.7l164-80.9v-11.6l-164-80.9v-1111.9l234-80.9v-11.6l-234-80.9v-765.8l27-78.1v-11.5l-17-49.7v-28.3l14-81v-11.5l-24-131v-543.3l151-80.9v-10.1l-151-82.3v-252.7l42-80.9v-11.5l-42-81v-277.39l94-80.92v-11.56l-94-80.92v-1042.17l89-80.92v-11.56l-89-80.92v-50.57l14-80.92v-11.56l-14-80.92v-1601.18l164-80.92v-11.56l-164-80.92v-518.83l-42-59.82v-8.55l42-59.82v-651.02l164-80.92v-11.56l-164-80.92v-177.22l42-60.69v-11.56l-42-61.78v-1554.03l136-80.92v-11.56l-136-80.92v-225.11l84-59.82v-8.55l-84-59.82v-220.44l23-59.82v-8.55l-23-60.5v-693.88l87-66.47v-11.56l-87-69.36v-13.45l165-59.82v-8.55l-165-59.82v-223.32l179-59.82v-8.55l-179-60.5V210.01l15-79.47v-11.56l-15-80.21V1"/>
</svg>