<?xml version="1.0" encoding="UTF-8"?>
<svg id="Layer_1" xmlns="http://www.w3.org/2000/svg" version="1.1" viewBox="0 0 776 8192">
  <!-- Generator: Adobe Illustrator 29.2.1, SVG Export Plug-In . SVG Version: 2.1.0 Build 116)  -->
  <defs>
    <style>
      .st0 {
        fill: none;
        stroke: #000;
        stroke-miterlimit: 2.2;
      }
    </style>
  </defs>
  <path class="st0" d="M382.5,8191.6v-25.3l83-44.8v-6.4l-83-44.8v-390.1l90.8-44.8v-6.4l-90.8-44.8v-615.5l129.5-44.8v-6.4l-129.5-44.8v-423.9l14.9-43.2v-6.4l-9.4-27.5v-15.7l7.8-44.8v-6.4l-13.3-72.5v-300.8l83.6-44.8v-5.6l-83.6-45.6v-139.9l23.3-44.8v-6.4l-23.3-44.8v-153.6l52-44.8v-6.4l-52-44.8v-576.9l49.3-44.8v-6.4l-49.3-44.8v-28l7.8-44.8v-6.4l-7.8-44.8v-886.4l90.8-44.8v-6.4l-90.8-44.8v-287.2l-23.3-33.1v-4.7l23.3-33.1v-360.4l90.8-44.8v-6.4l-90.8-44.8v-98.1l23.3-33.6v-6.4l-23.3-34.2v-860.3l75.3-44.8v-6.4l-75.3-44.8v-124.6l46.5-33.1v-4.7l-46.5-33.1v-122l12.7-33.1v-4.7l-12.7-33.5v-384.1l48.2-36.8v-6.4l-48.2-38.4v-7.4l91.3-33.1v-4.7l-91.3-33.1v-123.6l99.1-33.1v-4.7l-99.1-33.5V116.3l8.3-44v-6.4l-8.3-44.4V.6"/>
</svg>