<?xml version="1.0" encoding="UTF-8"?>
<svg id="Layer_1" data-name="Layer 1" xmlns="http://www.w3.org/2000/svg" viewBox="0 0 776 14798">
  <defs>
    <style>
      .cls-1 {
        fill: none;
        stroke: #000;
      }
    </style>
  </defs>
  <path class="cls-1" d="M190,14796.7v-45.7l326.5-80.9v-11.6l-326.5-80.9v-14.9l-11.5-80.9v-11.6l11.5-80.9v-516.6l339.5-80.9v-11.5l-339.5-81v-323.6l-11.5-80.9v-11.6l11.5-81.2v-141.5l340.5-95.8v-11.5l-340.5-94.7v-663.1l-11.5-80.9v-11.6l11.5-80.9v-1307.5l326.5-81.1v-11.6l-326.5-80.9v-252.8l218.5-80.9v-11.6l-218.5-80.9v-837l354.5-80.92v-11.56l-354.5-81.83v-2380.52l368.5-80.92v-11.56l-368.5-80.91v-616.48l134.5-60.84v-10.11l-134.5-58.55v-138l44.5-81.23v-11.56l-44.5-80.71v-340l340.5-81.18v-11.56l-340.5-80.76v-358l371-60.16v-8.54l-371-60.3v-494l360.5-81.06v-11.56l-360.5-82.38v-45.5l-159.5-60.25v-8.55l159.5-59.7v-535l313.5-81.35v-11.56l-313.5-81.09v-1095.17l-.13-20.23,16.63-60.64.02-11.56-16.52-80.96-.14-20.23v-268.37l341.64-59.82v-8.55l-341.5-59.82v-223.33l.5-128.87v-5.51l354-80.91v-11.56l-354.5-80.92V0"/>
</svg>