<?xml version="1.0" encoding="UTF-8"?>
<svg id="Layer_1" xmlns="http://www.w3.org/2000/svg" version="1.1" viewBox="0 0 776 8192">
  <!-- Generator: Adobe Illustrator 29.2.1, SVG Export Plug-In . SVG Version: 2.1.0 Build 116)  -->
  <defs>
    <style>
      .st0 {
        fill: none;
        stroke: #000;
        stroke-miterlimit: 2.2;
      }
    </style>
  </defs>
  <path class="st0" d="M278.4,8191.3v-25.3l180.7-44.8v-6.4l-180.7-44.8v-8.2l-6.4-44.8v-6.4l6.4-44.8v-286l187.9-44.8v-6.4l-187.9-44.8v-179.1l-6.4-44.8v-6.4l6.4-45v-78.3l188.5-53v-6.4l-188.5-52.4v-367.1l-6.4-44.8v-6.4l6.4-44.8v-723.8l180.7-44.9v-6.4l-180.7-44.8v-139.9l121-44.8v-6.4l-121-44.8v-463.4l196.2-44.8v-6.4l-196.2-45.3v-1317.8l204-44.8v-6.4l-204-44.8v-341.3l74.5-33.7v-5.6l-74.5-32.4v-76.4l24.6-45v-6.4l-24.6-44.7v-188.2l188.5-44.9v-6.4l-188.5-44.7v-198.2l205.4-33.3v-4.7l-205.4-33.4v-273.5l199.6-44.9v-6.4l-199.6-45.6v-25.2l-88.3-33.4v-4.7l88.3-33v-296.2l173.5-45v-6.4l-173.5-44.9v-617.5c0,0,9.1-33.6,9.1-33.6v-6.4s-9.1-44.8-9.1-44.8v-11.2c0,0,0-148.6,0-148.6l189.1-33.1v-4.7l-189.1-33.1v-123.6l.3-71.3v-3.1l196-44.8v-6.4l-196.2-44.8V0"/>
</svg>