<?xml version="1.0" encoding="UTF-8"?>
<svg id="Layer_1" data-name="Layer 1" xmlns="http://www.w3.org/2000/svg" viewBox="0 0 103.43 103.84">
  <defs>
    <style>
      .cls-1 {
        fill: none;
      }
    </style>
  </defs>
  <polygon class="cls-1" points="83.44 52.26 54.11 9.12 54.11 52.4 48.31 52.4 48.31 9.42 19.9 52.32 28.85 71.97 73.69 71.97 83.44 52.26"/>
  <rect class="cls-1" x="30.96" y="78.3" width="40.49" height="18.84"/>
  <path d="M77.25,77.77l12.94-25.97L55.07.36h-7.63L13.25,51.79l11.91,25.97v18.8l4,6.92h44.1l3.99-6.91v-18.81ZM19.9,52.32L48.31,9.42v42.98h5.8V9.12l29.34,43.14-9.75,19.71H28.85l-8.96-19.65ZM71.45,97.15H30.96v-18.84h40.49v18.84Z"/>
</svg>