<?xml version="1.0" encoding="UTF-8"?>
<svg id="Layer_1" data-name="Layer 1" xmlns="http://www.w3.org/2000/svg" viewBox="0 0 103.43 103.84">
  <defs>
    <style>
      .cls-1 {
        fill: #231f20;
      }
    </style>
  </defs>
  <g>
    <path class="cls-1" d="M99.4,103.44h-47.85v-5.8h44.46s0,0,0,0c.5-.88,1.02-1.78,1.47-2.61v-44.14h5.8v45.59s-.33.63-.33.63c-.57,1.09-1.25,2.27-1.9,3.42-.28.49-.56.98-.83,1.45l-.83,1.48Z"/>
    <path class="cls-1" d="M51.63,103.44H4.03l-.83-1.48c-.26-.47-.54-.96-.83-1.45-.66-1.15-1.33-2.33-1.9-3.42l-.33-.63v-45.59s5.8,0,5.8,0v44.14c.45.83.97,1.73,1.47,2.61,0,0,0,0,0,0h44.22v5.8Z"/>
    <rect class="cls-1" x="26.09" y="48.98" width="51.42" height="5.8"/>
  </g>
  <g>
    <path class="cls-1" d="M97.5,50.88V8.82c-.45-.83-.97-1.73-1.47-2.61h0s-44.47-.01-44.47-.01V.4h47.85l.83,1.48c.26.47.54.96.83,1.45.65,1.14,1.33,2.33,1.9,3.41l.33.63v43.5s-5.8,0-5.8,0Z"/>
    <path class="cls-1" d="M5.93,50.88H.13V7.38s.33-.63.33-.63c.57-1.09,1.25-2.27,1.9-3.41.28-.5.56-.98.83-1.45l.83-1.48h47.6v5.8H7.4c-.5.89-1.02,1.79-1.47,2.62v42.06Z"/>
  </g>
</svg>