<?xml version="1.0" encoding="UTF-8"?>
<svg id="Layer_1" data-name="Layer 1" xmlns="http://www.w3.org/2000/svg" viewBox="0 0 103.43 103.84">
  <defs>
    <style>
      .cls-1 {
        fill: #231f20;
      }

      .cls-2 {
        fill: none;
      }
    </style>
  </defs>
  <rect class="cls-1" x="39.37" y="49.62" width="45.61" height="5.8"/>
  <g>
    <polygon class="cls-2" points="55.72 25.88 84.97 25.88 84.97 31.68 57.11 31.68 57.11 97.71 97.5 97.71 97.5 6.14 5.93 6.14 5.93 97.71 51.31 97.71 51.31 33.53 55.72 25.88"/>
    <polygon points="103.3 8.14 98.8 .34 4.63 .34 .13 8.14 .13 95.69 4.65 103.51 51.31 103.51 51.31 97.71 5.93 97.71 5.93 6.14 97.5 6.14 97.5 97.71 57.11 97.71 57.11 103.51 98.79 103.51 103.3 95.69 103.3 8.14"/>
    <rect x="51.31" y="103.51" width="5.8" height="0"/>
    <polygon points="57.11 31.68 84.97 31.68 84.97 25.88 55.72 25.88 51.31 33.53 51.31 97.71 57.11 97.71 57.11 31.68"/>
    <rect x="51.31" y="97.71" width="5.8" height="5.8"/>
  </g>
</svg>