<?xml version="1.0" encoding="UTF-8"?>
<svg id="Layer_1" data-name="Layer 1" xmlns="http://www.w3.org/2000/svg" viewBox="0 0 103.43 103.84">
  <defs>
    <style>
      .cls-1 {
        fill: none;
      }
    </style>
  </defs>
  <rect class="cls-1" x="82.56" y="6.23" width="14.79" height="14.79"/>
  <g>
    <rect class="cls-1" x="6.01" y="31.83" width="65.83" height="65.83"/>
    <path d="M77.64,33.8l-4.48-7.76H4.67L.21,33.76v61.89l4.51,7.82h68.4l4.51-7.82v-61.85ZM71.84,97.66H6.01V31.83h65.83v65.83Z"/>
  </g>
  <g>
    <rect class="cls-1" x="82.56" y="6.23" width="14.79" height="14.79"/>
    <g>
      <rect class="cls-1" x="82.56" y="6.23" width="14.79" height="14.79"/>
      <path d="M103.22,7.89l-.07.12-4.41-7.63H30.45l-4.46,7.72v20.98h5.8V6.18h44.97v15.74l2.83,4.91h17.83v45.48h-22.85v5.8h24.14l4.51-7.82V7.89ZM97.35,21.02h-14.79V6.23h14.79v14.79Z"/>
    </g>
  </g>
  <polygon points="71.84 34.29 71.84 46.42 57.25 46.42 57.25 31.83 68.45 31.83 68.45 26.03 51.45 26.03 51.45 47.25 54.32 52.22 77.64 52.22 77.64 34.29 71.84 34.29"/>
</svg>