<?xml version="1.0" encoding="UTF-8"?>
<svg id="Layer_1" data-name="Layer 1" xmlns="http://www.w3.org/2000/svg" viewBox="0 0 103.43 103.84">
  <polygon points="54.75 .26 51.85 .26 51.85 .26 51.12 .26 48.95 .26 48.95 .26 48.93 51.63 48.93 51.63 48.93 51.92 48.93 52.21 48.93 52.21 48.95 103.59 48.95 103.59 51.12 103.59 51.85 103.59 51.85 103.59 54.75 103.58 54.73 51.92 54.75 .26"/>
  <polygon points="6.56 .26 .08 .26 13.47 27.12 13.46 51.63 13.46 51.63 13.46 51.92 13.46 52.21 13.46 52.21 13.47 76.73 .08 103.59 6.56 103.59 19.27 78.09 19.26 51.92 19.27 25.75 6.56 .26"/>
  <polygon points="31.56 .26 25.31 .26 36.02 26.93 36.01 51.63 36.01 51.63 36.01 51.92 36.01 52.21 36.01 52.21 36.02 76.91 25.31 103.59 31.56 103.59 41.82 78.03 41.81 51.92 41.82 25.81 31.56 .26"/>
  <polygon points="96.87 .26 103.35 .26 89.96 27.12 89.97 51.63 89.97 51.63 89.97 51.92 89.97 52.21 89.97 52.21 89.96 76.73 103.35 103.59 96.87 103.59 84.16 78.09 84.17 51.92 84.16 25.75 96.87 .26"/>
  <polygon points="71.88 .26 78.13 .26 67.41 26.93 67.42 51.63 67.42 51.63 67.42 51.92 67.42 52.21 67.42 52.21 67.41 76.91 78.13 103.59 71.88 103.59 61.61 78.03 61.62 51.92 61.61 25.81 71.88 .26"/>
</svg>