<?xml version="1.0" encoding="UTF-8"?>
<svg id="Layer_1" data-name="Layer 1" xmlns="http://www.w3.org/2000/svg" viewBox="0 0 103.43 103.84">
  <defs>
    <style>
      .cls-1 {
        fill: #231f20;
      }

      .cls-2 {
        fill: none;
      }
    </style>
  </defs>
  <g>
    <path class="cls-2" d="M5.59,98.11h91.93V6.45H5.59v91.65Z"/>
    <path d="M98.82.65H4.3L-.21,8.46v87.63l4.51,7.82h94.51l4.51-7.82V8.46l-4.51-7.8ZM97.52,98.11H5.59V6.45h91.93v91.65Z"/>
  </g>
  <path class="cls-1" d="M82.55,80.67h-20.12L20.29,23.69h19.71l42.55,56.98ZM65.35,74.87h5.62L37.09,29.49h-5.3l33.56,45.37Z"/>
  <g>
    <polygon points="82.82 23.55 74.8 23.55 53.18 46.19 56.7 50.91 82.82 23.55"/>
    <polygon points="20.35 80.57 28.37 80.57 49.56 58.39 46.06 53.65 20.35 80.57"/>
  </g>
</svg>