<?xml version="1.0" encoding="UTF-8"?>
<svg id="Layer_1" data-name="Layer 1" xmlns="http://www.w3.org/2000/svg" viewBox="0 0 103.43 103.84">
  <defs>
    <style>
      .cls-1 {
        fill: #231f20;
      }

      .cls-2 {
        fill: none;
      }
    </style>
  </defs>
  <polygon class="cls-1" points=".07 104.96 .07 63.62 5.87 63.62 5.87 99.15 97.56 98.95 97.56 63.4 103.36 63.4 103.36 104.74 .07 104.96"/>
  <rect class="cls-1" x="48.73" y="-1.12" width="5.8" height="77.67"/>
  <g>
    <polygon class="cls-2" points="86.71 42.17 17.26 42.17 51.65 73.17 86.71 42.17"/>
    <polygon points="90.8 38.56 86.71 42.17 90.8 42.17 90.8 38.56"/>
    <polygon points="86.71 42.17 51.65 73.17 17.26 42.17 12.76 42.17 12.76 45.93 47.3 77.06 56.01 77.06 90.8 46.3 90.8 42.17 86.71 42.17"/>
    <polygon points="12.76 38.12 12.76 42.17 17.26 42.17 12.76 38.12"/>
  </g>
</svg>