<?xml version="1.0" encoding="UTF-8"?>
<svg id="Layer_1" data-name="Layer 1" xmlns="http://www.w3.org/2000/svg" viewBox="0 0 103.43 103.84">
  <defs>
    <style>
      .cls-1 {
        fill: none;
      }

      .cls-2 {
        fill: #e21c44;
      }
    </style>
  </defs>
  <polygon class="cls-1" points="57.84 52.71 58.9 53.77 57.82 52.68 57.82 52.74 57.84 52.71"/>
  <polygon points="101.77 88.75 57.82 44.42 57.82 49.78 57.82 52.68 58.9 53.77 60.4 55.27 60.39 55.27 96.98 92.16 91.85 97.29 55.26 60.4 55.26 60.41 52.8 57.93 49.67 57.93 44.67 57.93 88.43 102.07 93.82 103.52 103.21 94.13 101.77 88.75"/>
  <rect class="cls-1" x="6.02" y="6.13" width="46" height="46"/>
  <path d="M48.27,53.31l.02.02,1.57,1.62h0s1.38,1.4,1.38,1.4l5.13-5.13-1.03-1.03-1.94-2.01,4.09-4.09.32.33V8.15L53.31.33H4.73L.22,8.15v42.01l4.49,7.77h39.96l-.5-.51,4.11-4.11ZM6.02,6.13h46v46H6.02V6.13Z"/>
  <polygon points="48.28 53.34 49.86 54.95 48.29 53.33 48.28 53.34"/>
  <polygon points="53.41 48.18 55.35 50.19 56.37 51.22 57.82 49.78 57.82 44.42 57.5 44.09 53.41 48.18"/>
  <polygon points="51.25 56.35 49.86 54.96 49.86 54.95 48.28 53.34 48.29 53.33 48.27 53.31 44.16 57.42 44.67 57.93 49.67 57.93 51.25 56.35"/>
  <polygon points="51.25 56.35 52.72 57.84 57.82 52.74 57.82 52.68 56.37 51.22 51.25 56.35"/>
  <polygon points="52.72 57.84 51.25 56.35 49.67 57.93 52.8 57.93 52.72 57.84 52.72 57.84"/>
  <polygon points="57.82 52.68 57.82 49.78 56.37 51.22 57.82 52.68"/>
  <rect class="cls-2" x="54.03" y="57.42" width="0" height="3.49" transform="translate(-26 55.23) rotate(-44.78)"/>
  <polygon class="cls-2" points="60.4 55.27 58.9 53.77 60.39 55.27 60.4 55.27"/>
  <rect class="cls-2" x="52.76" y="57.82" width="0" height=".13" transform="translate(-25.42 53.27) rotate(-44.27)"/>
</svg>