<?xml version="1.0" encoding="UTF-8"?>
<svg id="Layer_2" data-name="Layer 2" xmlns="http://www.w3.org/2000/svg" viewBox="0 0 531.61 210.99">
  <defs>
    <style>
      .cls-1 {
        stroke-width: .32px;
      }

      .cls-1, .cls-2, .cls-3 {
        fill: none;
        stroke: #a7a9ac;
        stroke-miterlimit: 10;
      }

      .cls-4 {
        font-family: 'GeistMono_550.000wght_0ital', 'Geist Mono';
        font-size: 24.46px;
        font-variation-settings: 'wght' 550;
      }

      .cls-2 {
        stroke-width: .38px;
      }

      .cls-3 {
        stroke-width: .34px;
      }
    </style>
  </defs>
  <g>
    <text class="cls-4" transform="translate(299.01 79.83)"><tspan x="0" y="0">Scientific</tspan><tspan x="0" y="29.35">Historical</tspan><tspan x="0" y="58.71">Institute</tspan><tspan x="0" y="88.06">For Timelines</tspan></text>
    <path d="M233.41,139.53v-45.97h-15.65v-7.45h39.12v7.45h-15.65v45.97h-7.82Z"/>
    <path d="M178.07,139.53v-53.42h33.41v7.3h-30.02l4.51-4.29v24.53l-4.51-3.84h28.67v7.22h-28.67l4.51-3.84v26.33h-7.9Z"/>
    <path d="M133.88,139.53v-7.45h12.79v-38.52h-12.79v-7.45h33.41v7.45h-12.79v38.52h12.79v7.45h-33.41Z"/>
    <path d="M88.04,139.53v-53.42h7.9v25.73l-3.54-2.86h27.99l-3.54,2.86v-25.73h7.9v53.42h-7.9v-26.03l3.54,2.86h-27.99l3.54-2.86v26.03h-7.9Z"/>
    <path d="M62.85,140.72c-3.86,0-7.24-.78-10.12-2.33-2.88-1.55-5.18-3.72-6.88-6.51-1.71-2.78-3.05-6.53-2.94-10.22l8.06-.05c.35,2.56,1.05,4.72,2.11,6.47,1.05,1.76,2.43,3.07,4.14,3.95,1.7.88,3.69,1.32,5.94,1.32,2.21,0,4.06-.29,5.57-.87,1.5-.58,2.66-1.42,3.46-2.52.8-1.1,1.2-2.43,1.2-3.99s-.38-3.01-1.13-4.21c-.75-1.2-2.11-2.31-4.06-3.31-1.96-1-4.82-2.03-8.58-3.08-3.66-1-6.65-2.13-8.95-3.39-2.31-1.25-3.99-2.81-5.04-4.66-1.05-1.85-1.58-4.16-1.58-6.92,0-3.06.71-5.76,2.14-8.09,1.43-2.33,3.49-4.15,6.17-5.45,2.68-1.3,5.91-1.96,9.67-1.96,3.71,0,6.88.73,9.52,2.18,2.63,1.46,4.71,3.47,6.24,6.06,1.53,2.58,2.25,6.1,2.23,9.52h-7.54c-.25-2.06-.82-3.86-1.69-5.42-.88-1.55-2.07-2.77-3.57-3.65-1.5-.88-3.31-1.32-5.42-1.32-2.96,0-5.3.71-7.03,2.14-1.73,1.43-2.6,3.3-2.6,5.61,0,1.56.35,2.83,1.05,3.84.7,1,1.93,1.91,3.69,2.71,1.76.8,4.21,1.63,7.37,2.48,4.26,1.15,7.65,2.48,10.16,3.99,2.51,1.5,4.31,3.31,5.42,5.42,1.1,2.11,1.66,4.62,1.66,7.52s-.78,5.48-2.33,7.71c-1.56,2.23-3.72,3.96-6.51,5.19-2.78,1.23-6.06,1.84-9.82,1.84Z"/>
    <rect x="88.04" y="146.79" width="123.44" height="7.03"/>
    <rect x="88.04" y="161.04" width="123.44" height="7.03"/>
    <g>
      <rect x="88.04" y="72.54" width="123.44" height="7.03"/>
      <polygon points="211.48 69.03 149.76 50.45 88.04 69.03 88.04 62 149.76 43.42 211.48 62 211.48 69.03"/>
    </g>
  </g>
  <line class="cls-1" x1="0" x2="0" y2="210.99"/>
  <line class="cls-2" x1="531.61" x2="0"/>
  <line class="cls-3" x1="0" y1="210.99" x2="531.61" y2="210.99"/>
</svg>